
<svg display="none"
xmlns="http://www.w3.org/2000/svg">
      <symbol id="facebook" viewBox="0 0 32 32">
      <g id="Flat_copy">
        <path d="M11.848,32h6.612V15.998h4.411l0.584-5.514H18.46l0.007-2.761c0-1.437,0.137-2.209,2.2-2.209h2.757V0h-4.412   c-5.299,0-7.164,2.675-7.164,7.174v3.311H8.545v5.515h3.303V32z"/>
      </g>
      </symbol>
   
      <symbol id="github" viewBox="0 0 12 12">
        <g>
          <path d="M6 0C2.687 0 0 2.754 0 6.152c0 2.718 1.719 5.024 4.103 5.837.3.057.41-.133.41-.296 0-.146-.005-.533-.008-1.046-1.669.371-2.021-.825-2.021-.825-.273-.711-.666-.9-.666-.9-.545-.382.04-.374.04-.374.603.044.92.634.92.634.535.94 1.404.668 1.746.511.055-.397.21-.669.381-.822-1.332-.155-2.733-.683-2.733-3.04 0-.672.234-1.221.618-1.651-.062-.156-.268-.781.058-1.629 0 0 .504-.165 1.65.631A5.614 5.614 0 016 2.975a5.58 5.58 0 011.502.207c1.146-.796 1.649-.63 1.649-.63.327.847.121 1.472.06 1.628.384.43.616.979.616 1.65 0 2.364-1.403 2.884-2.74 3.036.216.19.408.565.408 1.14 0 .821-.007 1.485-.007 1.687 0 .164.108.356.412.296 2.382-.816 4.1-3.12 4.1-5.837C12 2.754 9.313 0 6 0"/>
        </g>
      </symbol>
    
      <symbol id="twitter" viewBox="0 0 512 512">
        <g>
          <path d="M4,440.5c55.6,5,105.7-9,151.3-43.2c-47.7-4.2-79.6-28-97.4-72.6c15.6,1.9,30.2,2.4,45.7-1.8   c-51.4-16-78.8-49.6-82.5-103.8c15.4,7.2,29.9,12.4,47,12.6c-30.5-22.9-46.1-52.6-45.5-90c0.3-17.2,4.9-33.4,14-48.7   C93.1,159.1,164,195.7,251.3,201.8c-0.5-3.8-0.8-6.8-1.2-9.9c-7.2-55.4,28.8-105.8,83.8-116.3c34.5-6.6,65,2.5,90.8,26.3   c4,3.6,7.4,4.4,12.4,3.1c20.1-5.1,39.2-12.5,57.7-22.5c-7.1,23.4-21.7,41-41.5,55.8c4.5-0.8,9.1-1.4,13.6-2.3   c4.7-1,9.4-2.1,14.1-3.4c4.5-1.2,8.9-2.6,13.3-4.1c4.5-1.5,9-3.2,14.3-4.1c-2.6,3.6-5.1,7.4-7.9,10.9c-11.6,14.7-25,27.6-39.7,39.1   c-1.5,1.2-2.8,3.8-2.7,5.6c0.8,35.5-4.2,70.1-15.7,103.7c-22.6,66.2-62,119.8-121.1,158.1c-29.2,18.9-61.1,31.3-95.2,38.5   c-33.8,7.1-67.8,8.4-101.9,4.4c-34.2-4-66.7-14.1-97.3-29.9c-8.1-4.1-15.9-8.7-23.8-13.1C3.6,441.3,3.8,440.9,4,440.5z"/>
        </g>
      </symbol>
   
      <symbol id="linkedin" viewBox="0 0 512 512">
        <g>
         <path d="M173.5,508.7c0-2.4,0-4.7,0-7c0-107.7,0-215.3,0-323c0-3-0.2-5.4,4.2-5.4c31.8,0.2,63.7,0.1,95.5,0.1   c0.8,0,1.6,0.2,2.9,0.4c0,14,0,27.8,0,41.7c0.4,0.1,0.7,0.3,1.1,0.4c4-5.2,7.8-10.6,12-15.7c12.2-15,27.5-26,45.5-32.6   c9.8-3.6,20.5-5.8,30.8-6.3c14.2-0.6,28.7-0.4,42.7,2c23,3.9,43.3,14.1,60.1,30.8c15.9,15.7,26.4,34.6,32.1,55.9   c3,11.3,4.9,22.9,6.7,34.4c1.2,8,1.8,16.2,1.8,24.2c0.1,65,0.1,130,0.1,195c0,1.6-0.1,3.2-0.2,5.3c-1.9,0-3.5,0-5.1,0   c-30.7,0-61.3-0.1-92,0.1c-5.1,0-6-1.7-6-6.3c0.1-59.8,0.3-119.7-0.1-179.5c-0.1-10.5-1.1-21.4-3.8-31.5   c-4.9-17.7-16.1-30.5-33.9-37c-15-5.5-30.2-6.5-45.6-2.6c-17,4.3-28.7,15.6-37.5,30.5c-6.8,11.5-8.1,24.2-8.2,36.9   c-0.4,60.7-0.2,121.3-0.2,182c0,2.3,0,4.6,0,7.1C241.9,508.7,208,508.7,173.5,508.7z"/><path d="M109.1,342.6c0,53.3-0.1,106.6,0.1,159.9c0,4.8-1,6.6-6.3,6.5c-30.5-0.3-61-0.3-91.5,0c-5,0-6.1-1.7-6.1-6.3   c0.1-107.1,0.1-214.3,0-321.4c0-4.3,1.2-5.8,5.6-5.8c30.8,0.2,61.6,0.2,92.5,0c4.8,0,5.7,1.8,5.7,6.1   C109.1,235.3,109.1,289,109.1,342.6z"/><path d="M56.1,4.8C89,4,108.7,27.9,108.8,57.2c0.1,30-20.9,52.4-53.9,52.3c-30.7,0-52.4-22-52.3-53.1C2.7,27.3,23.8,3.8,56.1,4.8z"/>
        </g>
      </symbol>
      <symbol id="scrollup" viewBox="0 0 24 24">
        <g>
         <path d="M12,5.1l-0.7,0.7l-9,9l1.4,1.4L12,7.9l8.3,8.3l1.4-1.4l-9-9L12,5.1z"/>
        </g>
      </symbol>

    </svg>